<svg xmlns="http://www.w3.org/2000/svg" viewBox="0 0 64 64">
  <path fill="currentColor"
    d="M35.1 6.4a3 3 0 0 0-6.2 0l-.6 4a18.2 18.2 0 0 0-3.6 1.8l-3.7-2.3a3 3 0 0 0-4.2 1.1l-4.3 7.4a3 3 0 0 0 1.4 4l3.7 1.7a20.4 20.4 0 0 0-.1 3.6l-3.6 1.6a3 3 0 0 0-1.5 4l4.3 7.5a3 3 0 0 0 4.2 1.2l3.6-2a17 17 0 0 0 3.7 2.4l.6 4.2a3 3 0 0 0 6.2 0l.6-4.2a17.6 17.6 0 0 0 3.7-2.3l3.7 2.1a3 3 0 0 0 4.2-1.2l4.3-7.5a3 3 0 0 0-1.4-4l-3.6-1.6c.2-1.2.2-2.4.2-3.6l3.6-1.7a3 3 0 0 0 1.4-4l-4.3-7.4a3 3 0 0 0-4.1-1.1l-3.8 2.3a18.8 18.8 0 0 0-3.6-1.8Zm-3.1 12.4a10 10 0 1 1 0 20 10 10 0 0 1 0-20Z" />
</svg>
